<svg width="86" height="80" viewBox="0 0 86 80" fill="none" xmlns="http://www.w3.org/2000/svg">
<ellipse opacity="0.8" cx="42.9999" cy="40" rx="42.1818" ry="40" fill="url(#paint0_linear_304_141)"/>
<path d="M67.7455 44.0172L58.8181 38.9383V34.375C58.8213 34.043 58.7314 33.7162 58.5577 33.428C58.384 33.1397 58.1327 32.9004 57.8295 32.7344L44.9772 25.7875V21.25H48.9318C49.4562 21.25 49.9591 21.0525 50.3299 20.7008C50.7007 20.3492 50.909 19.8723 50.909 19.375C50.909 18.8777 50.7007 18.4008 50.3299 18.0492C49.9591 17.6975 49.4562 17.5 48.9318 17.5H44.9772V13.75C44.9772 13.2527 44.7689 12.7758 44.3981 12.4242C44.0273 12.0725 43.5244 11.875 43 11.875C42.4755 11.875 41.9726 12.0725 41.6018 12.4242C41.231 12.7758 41.0227 13.2527 41.0227 13.75V17.5H37.0681C36.5437 17.5 36.0408 17.6975 35.67 18.0492C35.2992 18.4008 35.0909 18.8777 35.0909 19.375C35.0909 19.8723 35.2992 20.3492 35.67 20.7008C36.0408 21.0525 36.5437 21.25 37.0681 21.25H41.0227V25.7875L28.1704 32.7461C27.8672 32.9121 27.6159 33.1514 27.4422 33.4397C27.2685 33.7279 27.1786 34.0547 27.1818 34.3867V38.95L18.2544 44.0172C17.9618 44.1839 17.7197 44.4196 17.5516 44.7013C17.3836 44.9831 17.2953 45.3013 17.2954 45.625V60.625C17.2954 61.1223 17.5037 61.5992 17.8745 61.9508C18.2454 62.3025 18.7483 62.5 19.2727 62.5H39.0454C39.5698 62.5 40.0727 62.3025 40.4436 61.9508C40.8144 61.5992 41.0227 61.1223 41.0227 60.625V49.375C41.0227 48.8777 41.231 48.4008 41.6018 48.0492C41.9726 47.6975 42.4755 47.5 43 47.5C43.5244 47.5 44.0273 47.6975 44.3981 48.0492C44.7689 48.4008 44.9772 48.8777 44.9772 49.375V60.625C44.9772 61.1223 45.1855 61.5992 45.5564 61.9508C45.9272 62.3025 46.4301 62.5 46.9545 62.5H66.7272C67.2516 62.5 67.7546 62.3025 68.1254 61.9508C68.4962 61.5992 68.7045 61.1223 68.7045 60.625V45.625C68.7046 45.3013 68.6163 44.9831 68.4483 44.7013C68.2802 44.4196 68.0381 44.1839 67.7455 44.0172ZM21.25 46.6867L27.1818 43.3117V58.75H21.25V46.6867ZM43 43.75C41.4267 43.75 39.918 44.3426 38.8055 45.3975C37.6931 46.4524 37.0681 47.8832 37.0681 49.375V58.75H31.1363V35.4625L43 29.0336L54.8636 35.4625V58.75H48.9318V49.375C48.9318 47.8832 48.3068 46.4524 47.1944 45.3975C46.082 44.3426 44.5732 43.75 43 43.75ZM64.75 58.75H58.8181V43.3117L64.75 46.6867V58.75Z" fill="#303030"/>
<defs>
<linearGradient id="paint0_linear_304_141" x1="18.2181" y1="-9.91672e-07" x2="63.9701" y2="82.1235" gradientUnits="userSpaceOnUse">
<stop stop-color="#FFECAE"/>
<stop offset="1" stop-color="#AEB5FA"/>
</linearGradient>
</defs>
</svg>
