<svg width="85" height="80" viewBox="0 0 85 80" fill="none" xmlns="http://www.w3.org/2000/svg">
<ellipse opacity="0.8" cx="42.1818" cy="40" rx="42.1818" ry="40" fill="url(#paint0_linear_304_177)"/>
<path d="M67.1532 52.1875L58.6595 43.6914L50.1142 15.4984C49.8713 14.6957 49.4342 13.9652 48.8416 13.3717C48.249 12.7781 47.5192 12.34 46.7167 12.0959C45.9143 11.8518 45.0641 11.8094 44.2414 11.9724C43.4187 12.1355 42.6488 12.4989 42.0001 13.0305C41.3514 12.4989 40.5816 12.1355 39.7589 11.9724C38.9361 11.8094 38.0859 11.8518 37.2835 12.0959C36.4811 12.34 35.7512 12.7781 35.1586 13.3717C34.566 13.9652 34.1289 14.6957 33.8861 15.4984L25.3407 43.6938L16.847 52.1875C16.1443 52.8907 15.7495 53.8442 15.7495 54.8383C15.7495 55.8324 16.1443 56.7859 16.847 57.4891L24.5087 65.1508C24.8569 65.4991 25.2704 65.7754 25.7254 65.9639C26.1804 66.1524 26.6681 66.2495 27.1607 66.2495C27.6532 66.2495 28.1409 66.1524 28.5959 65.9639C29.051 65.7754 29.4644 65.4991 29.8126 65.1508L41.1282 53.8281C41.4419 53.5137 41.7333 53.1777 42.0001 52.8227C42.267 53.1777 42.5583 53.5137 42.872 53.8281L54.1876 65.1531C54.5358 65.5015 54.9493 65.7777 55.4043 65.9663C55.8593 66.1548 56.347 66.2518 56.8396 66.2518C57.3321 66.2518 57.8198 66.1548 58.2748 65.9663C58.7299 65.7777 59.1433 65.5015 59.4915 65.1531L67.1532 57.4914C67.5016 57.1432 67.7779 56.7298 67.9664 56.2747C68.1549 55.8197 68.2519 55.332 68.2519 54.8395C68.2519 54.3469 68.1549 53.8592 67.9664 53.4042C67.7779 52.9492 67.5016 52.5357 67.1532 52.1875ZM27.1595 62.5L19.5001 54.8406L22.4743 51.8664L30.1361 59.5281L27.1595 62.5ZM40.1251 47.207C40.1289 47.9467 39.9858 48.6797 39.7042 49.3637C39.4225 50.0476 39.008 50.6689 38.4845 51.1914L32.7845 56.875L25.1251 49.2156L28.3243 46.0141C28.5427 45.7957 28.7037 45.5268 28.7931 45.2313L37.465 16.5859C37.5529 16.2672 37.7544 15.9916 38.0315 15.8112C38.3086 15.6307 38.6421 15.5578 38.9692 15.6062C39.2963 15.6546 39.5944 15.821 39.8073 16.074C40.0202 16.327 40.1333 16.6491 40.1251 16.9797V47.207ZM45.5157 51.1914C44.9923 50.6689 44.5777 50.0476 44.2961 49.3637C44.0145 48.6797 43.8714 47.9467 43.8751 47.207V16.9727C43.8752 16.6479 43.9919 16.334 44.2041 16.0881C44.4162 15.8423 44.7096 15.6808 45.0308 15.633C45.352 15.5853 45.6796 15.6546 45.9541 15.8282C46.2285 16.0018 46.4314 16.2682 46.5259 16.5789L55.1978 45.2242C55.2872 45.5198 55.4482 45.7887 55.6665 46.007L59.0626 49.4031L51.2345 56.9031L45.5157 51.1914ZM56.8407 62.5L53.897 59.5539L61.7228 52.0539L64.5001 54.8406L56.8407 62.5Z" fill="#303030"/>
<defs>
<linearGradient id="paint0_linear_304_177" x1="17.4" y1="-9.91672e-07" x2="63.152" y2="82.1235" gradientUnits="userSpaceOnUse">
<stop stop-color="#FFECAE"/>
<stop offset="1" stop-color="#AEB5FA"/>
</linearGradient>
</defs>
</svg>
