<svg width="85" height="80" viewBox="0 0 85 80" fill="none" xmlns="http://www.w3.org/2000/svg">
<ellipse opacity="0.8" cx="42.1818" cy="40" rx="42.1818" ry="40" fill="url(#paint0_linear_304_183)"/>
<path d="M55.815 22.79L47.8675 11.6475L18.645 34.9925L17.025 34.975V35H15.75V65H68.25V35H65.845L61.06 21.0025L55.815 22.79ZM60.5625 35H35.4925L54.165 28.635L57.97 27.4175L60.5625 35ZM50.875 24.475L31.6 31.045L46.865 18.85L50.875 24.475ZM20.75 55.4225V44.5725C21.8047 44.1987 22.7628 43.5943 23.5542 42.8032C24.3457 42.0122 24.9507 41.0545 25.325 40H58.675C59.0492 41.0549 59.654 42.013 60.4455 42.8044C61.237 43.5959 62.1951 44.2008 63.25 44.575V55.425C62.1951 55.7991 61.237 56.404 60.4455 57.1955C59.654 57.9869 59.0492 58.9451 58.675 60H25.33C24.9555 58.9442 24.3499 57.9853 23.5575 57.1934C22.7652 56.4014 21.806 55.7964 20.75 55.4225Z" fill="#303030"/>
<path d="M42 41.25C39.6794 41.25 37.4538 42.1719 35.8128 43.8128C34.1719 45.4538 33.25 47.6794 33.25 50C33.25 52.3206 34.1719 54.5462 35.8128 56.1872C37.4538 57.8281 39.6794 58.75 42 58.75C44.3206 58.75 46.5462 57.8281 48.1872 56.1872C49.8281 54.5462 50.75 52.3206 50.75 50C50.75 47.6794 49.8281 45.4538 48.1872 43.8128C46.5462 42.1719 44.3206 41.25 42 41.25ZM38.25 50C38.25 49.0054 38.6451 48.0516 39.3483 47.3483C40.0516 46.6451 41.0054 46.25 42 46.25C42.9946 46.25 43.9484 46.6451 44.6517 47.3483C45.3549 48.0516 45.75 49.0054 45.75 50C45.75 50.9946 45.3549 51.9484 44.6517 52.6516C43.9484 53.3549 42.9946 53.75 42 53.75C41.0054 53.75 40.0516 53.3549 39.3483 52.6516C38.6451 51.9484 38.25 50.9946 38.25 50Z" fill="#303030"/>
<defs>
<linearGradient id="paint0_linear_304_183" x1="17.4" y1="-9.91672e-07" x2="63.152" y2="82.1235" gradientUnits="userSpaceOnUse">
<stop stop-color="#FFECAE"/>
<stop offset="1" stop-color="#AEB5FA"/>
</linearGradient>
</defs>
</svg>
